<svg width="32" height="32" viewBox="0 0 32 32" fill="none" xmlns="http://www.w3.org/2000/svg">
    <style>
        :root {
            --fill: hsl(160 10% 70%);
            --shade: hsl(160 10% 5%);
        }

        @media (prefers-color-scheme: dark) {
            :root {
                --fill: hsl(160 10% 95%);
            }
        }
    </style>
    <path fill-rule="evenodd" clip-rule="evenodd"
        d="M30.2576 21.2473C30.9019 20.6685 31.1542 19.7724 30.906 18.9446C29.9275 15.6811 27.4523 7.42589 26.5162 4.3039C26.2891 3.54667 25.678 2.9647 24.9081 2.77255C22.3547 2.13526 16.5479 0.685957 14.0689 0.0672358C13.3455 -0.113307 12.5792 0.0749071 12.0232 0.569767C9.81286 2.53691 4.07981 7.63918 1.75018 9.71252C1.13074 10.2638 0.867084 11.1101 1.06443 11.9136C1.83632 15.0561 3.79057 23.0122 4.55769 26.1353C4.75257 26.9287 5.36597 27.5535 6.15824 27.7656C8.90248 28.5003 15.3024 30.2136 17.9527 30.9231C18.6896 31.1205 19.4768 30.9322 20.0433 30.4232C22.254 28.4373 27.9034 23.3622 30.2576 21.2473Z"
        fill="var(--fill)" />
    <mask id="mask0_32_2" style="mask-type:luminance" maskUnits="userSpaceOnUse" x="1" y="0" width="30" height="31">
        <path
            d="M30.2576 21.2473C30.9019 20.6685 31.1542 19.7724 30.906 18.9446C29.9275 15.6811 27.4523 7.42589 26.5162 4.3039C26.2891 3.54667 25.678 2.9647 24.9081 2.77255C22.3547 2.13526 16.5479 0.685957 14.0689 0.0672358C13.3455 -0.113307 12.5792 0.0749071 12.0232 0.569767C9.81286 2.53691 4.07981 7.63918 1.75018 9.71252C1.13074 10.2638 0.867084 11.1101 1.06443 11.9136C1.83632 15.0561 3.79057 23.0122 4.55769 26.1353C4.75257 26.9287 5.36597 27.5535 6.15824 27.7656C8.90248 28.5003 15.3024 30.2136 17.9527 30.9231C18.6896 31.1205 19.4768 30.9322 20.0433 30.4232C22.254 28.4373 27.9034 23.3622 30.2576 21.2473Z"
            fill="white" />
    </mask>
    <g mask="url(#mask0_32_2)">
        <path fill-rule="evenodd" clip-rule="evenodd"
            d="M31.3123 20.2998L26.15 3.08252L19.8445 16.7022L31.3123 20.2998Z" fill="var(--shade)"
            fill-opacity="0.1" />
        <path fill-rule="evenodd" clip-rule="evenodd"
            d="M31.3123 20.2999L19.1346 31.2396L19.8445 16.7022L31.3123 20.2999Z" fill="var(--shade)"
            fill-opacity="0.2" />
        <path fill-rule="evenodd" clip-rule="evenodd"
            d="M3.41139 21.4685L19.1346 31.2396L19.8445 16.7022L3.41139 21.4685Z" fill="var(--shade)"
            fill-opacity="0.3" />
        <path fill-rule="evenodd" clip-rule="evenodd"
            d="M3.41139 21.4684L19.1346 31.2396L4.87367 27.4217L3.41139 21.4684Z" fill="var(--shade)"
            fill-opacity="0.4" />
        <path fill-rule="evenodd" clip-rule="evenodd"
            d="M3.41139 21.4684L7.84815 4.28543L0.743782 10.6082L3.41139 21.4684Z" fill="var(--shade)"
            fill-opacity="0.2" />
        <path fill-rule="evenodd" clip-rule="evenodd"
            d="M3.41139 21.4684L7.84814 4.28543L19.8445 16.7022L3.41139 21.4684Z" fill="var(--shade)"
            fill-opacity="0.1" />
        <path fill-rule="evenodd" clip-rule="evenodd"
            d="M26.15 3.08252L7.84814 4.28546L12.9122 -0.221436L26.15 3.08252Z" fill="var(--shade)"
            fill-opacity="0.1" />
    </g>
</svg>